<?xml version="1.0" encoding="UTF-8"?>
<!--Generator: Apple Native CoreSVG 123-->
<!DOCTYPE svg
PUBLIC "-//W3C//DTD SVG 1.1//EN"
       "http://www.w3.org/Graphics/SVG/1.1/DTD/svg11.dtd">
<svg version="1.1" xmlns="http://www.w3.org/2000/svg" xmlns:xlink="http://www.w3.org/1999/xlink" width="3300" height="2200">
 <!--glyph: "uni1006E8.medium", point size: 100.000000, font version: "Version 15.0d7e11", template writer version: "5"-->
 <g id="Notes">
  <rect height="2200" id="artboard" style="fill:white;opacity:1" width="3300" x="0" y="0"/>
  <line id="" style="fill:none;stroke:black;opacity:1;stroke-width:0.5;" x1="263" x2="3036" y1="292" y2="292"/>
  <text style="stroke:none;fill:black;font-family:-apple-system,&quot;SF Pro Display&quot;,&quot;SF Pro Text&quot;,Helvetica,sans-serif;font-weight:bold;" transform="matrix(1 0 0 1 263 322)">Weight/Scale Variations</text>
  <text style="stroke:none;fill:black;font-family:-apple-system,&quot;SF Pro Display&quot;,&quot;SF Pro Text&quot;,Helvetica,sans-serif;text-anchor:middle;" transform="matrix(1 0 0 1 559.711 322)">Ultralight</text>
  <text style="stroke:none;fill:black;font-family:-apple-system,&quot;SF Pro Display&quot;,&quot;SF Pro Text&quot;,Helvetica,sans-serif;text-anchor:middle;" transform="matrix(1 0 0 1 856.422 322)">Thin</text>
  <text style="stroke:none;fill:black;font-family:-apple-system,&quot;SF Pro Display&quot;,&quot;SF Pro Text&quot;,Helvetica,sans-serif;text-anchor:middle;" transform="matrix(1 0 0 1 1153.13 322)">Light</text>
  <text style="stroke:none;fill:black;font-family:-apple-system,&quot;SF Pro Display&quot;,&quot;SF Pro Text&quot;,Helvetica,sans-serif;text-anchor:middle;" transform="matrix(1 0 0 1 1449.84 322)">Regular</text>
  <text style="stroke:none;fill:black;font-family:-apple-system,&quot;SF Pro Display&quot;,&quot;SF Pro Text&quot;,Helvetica,sans-serif;text-anchor:middle;" transform="matrix(1 0 0 1 1746.56 322)">Medium</text>
  <text style="stroke:none;fill:black;font-family:-apple-system,&quot;SF Pro Display&quot;,&quot;SF Pro Text&quot;,Helvetica,sans-serif;text-anchor:middle;" transform="matrix(1 0 0 1 2043.27 322)">Semibold</text>
  <text style="stroke:none;fill:black;font-family:-apple-system,&quot;SF Pro Display&quot;,&quot;SF Pro Text&quot;,Helvetica,sans-serif;text-anchor:middle;" transform="matrix(1 0 0 1 2339.98 322)">Bold</text>
  <text style="stroke:none;fill:black;font-family:-apple-system,&quot;SF Pro Display&quot;,&quot;SF Pro Text&quot;,Helvetica,sans-serif;text-anchor:middle;" transform="matrix(1 0 0 1 2636.69 322)">Heavy</text>
  <text style="stroke:none;fill:black;font-family:-apple-system,&quot;SF Pro Display&quot;,&quot;SF Pro Text&quot;,Helvetica,sans-serif;text-anchor:middle;" transform="matrix(1 0 0 1 2933.4 322)">Black</text>
  <line id="" style="fill:none;stroke:black;opacity:1;stroke-width:0.5;" x1="263" x2="3036" y1="1903" y2="1903"/>
  <g id="" transform="matrix(1 0 0 1 263 1933)">
   <path d="M 9.24805 0.830078 C 13.5547 0.830078 17.1387 -2.74414 17.1387 -7.05078 C 17.1387 -11.3574 13.5449 -14.9316 9.23828 -14.9316 C 4.94141 -14.9316 1.36719 -11.3574 1.36719 -7.05078 C 1.36719 -2.74414 4.95117 0.830078 9.24805 0.830078 Z M 9.24805 -0.654297 C 5.70312 -0.654297 2.87109 -3.49609 2.87109 -7.05078 C 2.87109 -10.6055 5.69336 -13.4473 9.23828 -13.4473 C 12.793 -13.4473 15.6348 -10.6055 15.6445 -7.05078 C 15.6543 -3.49609 12.8027 -0.654297 9.24805 -0.654297 Z M 9.22852 -3.42773 C 9.69727 -3.42773 9.9707 -3.74023 9.9707 -4.25781 L 9.9707 -6.31836 L 12.1973 -6.31836 C 12.6953 -6.31836 13.0371 -6.57227 13.0371 -7.04102 C 13.0371 -7.51953 12.7148 -7.7832 12.1973 -7.7832 L 9.9707 -7.7832 L 9.9707 -10.0098 C 9.9707 -10.5273 9.69727 -10.8496 9.22852 -10.8496 C 8.75977 -10.8496 8.50586 -10.5078 8.50586 -10.0098 L 8.50586 -7.7832 L 6.29883 -7.7832 C 5.78125 -7.7832 5.44922 -7.51953 5.44922 -7.04102 C 5.44922 -6.57227 5.80078 -6.31836 6.29883 -6.31836 L 8.50586 -6.31836 L 8.50586 -4.25781 C 8.50586 -3.75977 8.75977 -3.42773 9.22852 -3.42773 Z"/>
  </g>
  <g id="" transform="matrix(1 0 0 1 281.506 1933)">
   <path d="M 11.709 2.91016 C 17.1582 2.91016 21.6699 -1.60156 21.6699 -7.05078 C 21.6699 -12.4902 17.1484 -17.0117 11.6992 -17.0117 C 6.25977 -17.0117 1.74805 -12.4902 1.74805 -7.05078 C 1.74805 -1.60156 6.26953 2.91016 11.709 2.91016 Z M 11.709 1.25 C 7.09961 1.25 3.41797 -2.44141 3.41797 -7.05078 C 3.41797 -11.6504 7.08984 -15.3516 11.6992 -15.3516 C 16.3086 -15.3516 20 -11.6504 20.0098 -7.05078 C 20.0195 -2.44141 16.3184 1.25 11.709 1.25 Z M 11.6895 -2.41211 C 12.207 -2.41211 12.5195 -2.77344 12.5195 -3.33984 L 12.5195 -6.23047 L 15.5762 -6.23047 C 16.123 -6.23047 16.5039 -6.51367 16.5039 -7.03125 C 16.5039 -7.55859 16.1426 -7.86133 15.5762 -7.86133 L 12.5195 -7.86133 L 12.5195 -10.9277 C 12.5195 -11.5039 12.207 -11.8555 11.6895 -11.8555 C 11.1719 -11.8555 10.8789 -11.4844 10.8789 -10.9277 L 10.8789 -7.86133 L 7.83203 -7.86133 C 7.26562 -7.86133 6.89453 -7.55859 6.89453 -7.03125 C 6.89453 -6.51367 7.28516 -6.23047 7.83203 -6.23047 L 10.8789 -6.23047 L 10.8789 -3.33984 C 10.8789 -2.79297 11.1719 -2.41211 11.6895 -2.41211 Z"/>
  </g>
  <g id="" transform="matrix(1 0 0 1 304.924 1933)">
   <path d="M 14.9707 5.67383 C 21.9336 5.67383 27.6953 -0.078125 27.6953 -7.04102 C 27.6953 -14.0039 21.9238 -19.7559 14.9609 -19.7559 C 8.00781 -19.7559 2.25586 -14.0039 2.25586 -7.04102 C 2.25586 -0.078125 8.01758 5.67383 14.9707 5.67383 Z M 14.9707 3.85742 C 8.93555 3.85742 4.08203 -1.00586 4.08203 -7.04102 C 4.08203 -13.0762 8.92578 -17.9395 14.9609 -17.9395 C 21.0059 -17.9395 25.8594 -13.0762 25.8691 -7.04102 C 25.8789 -1.00586 21.0156 3.85742 14.9707 3.85742 Z M 14.9512 -1.06445 C 15.5176 -1.06445 15.8691 -1.45508 15.8691 -2.06055 L 15.8691 -6.13281 L 20.1074 -6.13281 C 20.6934 -6.13281 21.1133 -6.46484 21.1133 -7.02148 C 21.1133 -7.59766 20.7227 -7.93945 20.1074 -7.93945 L 15.8691 -7.93945 L 15.8691 -12.1875 C 15.8691 -12.8027 15.5176 -13.1934 14.9512 -13.1934 C 14.3848 -13.1934 14.0625 -12.7832 14.0625 -12.1875 L 14.0625 -7.93945 L 9.83398 -7.93945 C 9.21875 -7.93945 8.80859 -7.59766 8.80859 -7.02148 C 8.80859 -6.46484 9.23828 -6.13281 9.83398 -6.13281 L 14.0625 -6.13281 L 14.0625 -2.06055 C 14.0625 -1.47461 14.3848 -1.06445 14.9512 -1.06445 Z"/>
  </g>
  <text style="stroke:none;fill:black;font-family:-apple-system,&quot;SF Pro Display&quot;,&quot;SF Pro Text&quot;,Helvetica,sans-serif;font-weight:bold;" transform="matrix(1 0 0 1 263 1953)">Design Variations</text>
  <text style="stroke:none;fill:black;font-family:-apple-system,&quot;SF Pro Display&quot;,&quot;SF Pro Text&quot;,Helvetica,sans-serif;" transform="matrix(1 0 0 1 263 1971)">Symbols are supported in up to nine weights and three scales.</text>
  <text style="stroke:none;fill:black;font-family:-apple-system,&quot;SF Pro Display&quot;,&quot;SF Pro Text&quot;,Helvetica,sans-serif;" transform="matrix(1 0 0 1 263 1989)">For optimal layout with text and other symbols, vertically align</text>
  <text style="stroke:none;fill:black;font-family:-apple-system,&quot;SF Pro Display&quot;,&quot;SF Pro Text&quot;,Helvetica,sans-serif;" transform="matrix(1 0 0 1 263 2007)">symbols with the adjacent text.</text>
  <rect height="14" id="" style="fill:#00AEEF;stroke:none;opacity:0.4;" width="3" x="776" y="1919"/>
  <g id="" transform="matrix(1 0 0 1 779 1933)">
   <path d="M 10.5273 0 L 12.373 0 L 7.17773 -14.0918 L 5.43945 -14.0918 L 0.244141 0 L 2.08984 0 L 3.50586 -4.0332 L 9.11133 -4.0332 Z M 6.2793 -11.9531 L 6.33789 -11.9531 L 8.59375 -5.52734 L 4.02344 -5.52734 Z"/>
  </g>
  <rect height="14" id="" style="fill:#00AEEF;stroke:none;opacity:0.4;" width="3" x="791.617" y="1919"/>
  <text style="stroke:none;fill:black;font-family:-apple-system,&quot;SF Pro Display&quot;,&quot;SF Pro Text&quot;,Helvetica,sans-serif;font-weight:bold;" transform="matrix(1 0 0 1 776 1953)">Margins</text>
  <text style="stroke:none;fill:black;font-family:-apple-system,&quot;SF Pro Display&quot;,&quot;SF Pro Text&quot;,Helvetica,sans-serif;" transform="matrix(1 0 0 1 776 1971)">Leading and trailing margins on the left and right side of each symbol</text>
  <text style="stroke:none;fill:black;font-family:-apple-system,&quot;SF Pro Display&quot;,&quot;SF Pro Text&quot;,Helvetica,sans-serif;" transform="matrix(1 0 0 1 776 1989)">can be adjusted by modifying the width of the blue rectangles.</text>
  <text style="stroke:none;fill:black;font-family:-apple-system,&quot;SF Pro Display&quot;,&quot;SF Pro Text&quot;,Helvetica,sans-serif;" transform="matrix(1 0 0 1 776 2007)">Modifications are automatically applied proportionally to all</text>
  <text style="stroke:none;fill:black;font-family:-apple-system,&quot;SF Pro Display&quot;,&quot;SF Pro Text&quot;,Helvetica,sans-serif;" transform="matrix(1 0 0 1 776 2025)">scales and weights.</text>
  <g id="" transform="matrix(1 0 0 1 1289 1933)">
   <path d="M 2.83203 3.11523 L 4.375 4.6582 C 5.22461 5.48828 6.19141 5.41992 7.06055 4.46289 L 17.2754 -6.66016 C 17.7051 -6.36719 18.0957 -6.37695 18.5645 -6.47461 L 19.6094 -6.68945 L 20.3027 -5.99609 L 20.2539 -5.47852 C 20.1855 -4.95117 20.3516 -4.53125 20.8496 -4.0332 L 21.6602 -3.22266 C 22.168 -2.71484 22.8223 -2.68555 23.3008 -3.16406 L 26.5527 -6.41602 C 27.0312 -6.89453 27.0117 -7.54883 26.5039 -8.05664 L 25.6836 -8.87695 C 25.1855 -9.375 24.7754 -9.55078 24.2383 -9.47266 L 23.7109 -9.41406 L 23.0566 -10.0781 L 23.3398 -11.2207 C 23.4863 -11.7871 23.3398 -12.2559 22.7148 -12.8613 L 20.3027 -15.2539 C 16.7578 -18.7793 12.2266 -18.6719 9.11133 -15.5371 C 8.69141 -15.1074 8.64258 -14.5215 8.91602 -14.0918 C 9.15039 -13.7207 9.62891 -13.4961 10.2734 -13.6621 C 11.7871 -14.043 13.3008 -13.9258 14.7852 -12.9199 L 14.1602 -11.3379 C 13.9258 -10.752 13.9453 -10.2734 14.1797 -9.83398 L 3.01758 0.439453 C 2.08008 1.30859 1.97266 2.25586 2.83203 3.11523 Z M 10.6738 -15.1465 C 13.3398 -17.1387 16.6504 -16.8262 19.0527 -14.4141 L 21.6797 -11.8066 C 21.9141 -11.5723 21.9434 -11.3867 21.8848 -11.0938 L 21.5039 -9.53125 L 23.0762 -7.95898 L 24.043 -8.04688 C 24.3262 -8.07617 24.4141 -8.05664 24.6387 -7.83203 L 25.2637 -7.20703 L 22.5098 -4.46289 L 21.8848 -5.07812 C 21.6602 -5.30273 21.6406 -5.40039 21.6699 -5.68359 L 21.7578 -6.64062 L 20.1953 -8.20312 L 18.5742 -7.89062 C 18.291 -7.83203 18.1445 -7.83203 17.9102 -8.07617 L 15.7324 -10.2539 C 15.5078 -10.4883 15.4785 -10.625 15.6055 -10.9473 L 16.5527 -13.2227 C 14.9512 -14.7559 12.8418 -15.6055 10.8008 -14.9512 C 10.7129 -14.9219 10.6445 -14.9414 10.6152 -14.9805 C 10.5859 -15.0293 10.5859 -15.0781 10.6738 -15.1465 Z M 4.10156 2.41211 C 3.61328 1.91406 3.78906 1.61133 4.12109 1.30859 L 15.0781 -8.80859 L 16.3086 -7.57812 L 6.15234 3.34961 C 5.84961 3.68164 5.46875 3.7793 5.06836 3.37891 Z"/>
  </g>
  <text style="stroke:none;fill:black;font-family:-apple-system,&quot;SF Pro Display&quot;,&quot;SF Pro Text&quot;,Helvetica,sans-serif;font-weight:bold;" transform="matrix(1 0 0 1 1289 1953)">Exporting</text>
  <text style="stroke:none;fill:black;font-family:-apple-system,&quot;SF Pro Display&quot;,&quot;SF Pro Text&quot;,Helvetica,sans-serif;" transform="matrix(1 0 0 1 1289 1971)">Symbols should be outlined when exporting to ensure the</text>
  <text style="stroke:none;fill:black;font-family:-apple-system,&quot;SF Pro Display&quot;,&quot;SF Pro Text&quot;,Helvetica,sans-serif;" transform="matrix(1 0 0 1 1289 1989)">design is preserved when submitting to Xcode.</text>
  <text id="template-version" style="stroke:none;fill:black;font-family:-apple-system,&quot;SF Pro Display&quot;,&quot;SF Pro Text&quot;,Helvetica,sans-serif;text-anchor:end;" transform="matrix(1 0 0 1 3036 1933)">Template v.1.0</text>
  <text style="stroke:none;fill:black;font-family:-apple-system,&quot;SF Pro Display&quot;,&quot;SF Pro Text&quot;,Helvetica,sans-serif;text-anchor:end;" transform="matrix(1 0 0 1 3036 1951)">Generated from battery.100</text>
  <text style="stroke:none;fill:black;font-family:-apple-system,&quot;SF Pro Display&quot;,&quot;SF Pro Text&quot;,Helvetica,sans-serif;text-anchor:end;" transform="matrix(1 0 0 1 3036 1969)">Typeset at 100 points</text>
  <text style="stroke:none;fill:black;font-family:-apple-system,&quot;SF Pro Display&quot;,&quot;SF Pro Text&quot;,Helvetica,sans-serif;" transform="matrix(1 0 0 1 263 726)">Small</text>
  <text style="stroke:none;fill:black;font-family:-apple-system,&quot;SF Pro Display&quot;,&quot;SF Pro Text&quot;,Helvetica,sans-serif;" transform="matrix(1 0 0 1 263 1156)">Medium</text>
  <text style="stroke:none;fill:black;font-family:-apple-system,&quot;SF Pro Display&quot;,&quot;SF Pro Text&quot;,Helvetica,sans-serif;" transform="matrix(1 0 0 1 263 1586)">Large</text>
 </g>
 <g id="Guides">
  <g id="H-reference" style="fill:#27AAE1;stroke:none;" transform="matrix(1 0 0 1 339 696)">
   <path d="M 54.9316 0 L 57.666 0 L 30.5664 -70.459 L 28.0762 -70.459 L 0.976562 0 L 3.66211 0 L 12.9395 -24.4629 L 45.7031 -24.4629 Z M 29.1992 -67.0898 L 29.4434 -67.0898 L 44.8242 -26.709 L 13.8184 -26.709 Z"/>
  </g>
  <line id="Baseline-S" style="fill:none;stroke:#27AAE1;opacity:1;stroke-width:0.577;" x1="263" x2="3036" y1="696" y2="696"/>
  <line id="Capline-S" style="fill:none;stroke:#27AAE1;opacity:1;stroke-width:0.577;" x1="263" x2="3036" y1="625.541" y2="625.541"/>
  <g id="H-reference" style="fill:#27AAE1;stroke:none;" transform="matrix(1 0 0 1 339 1126)">
   <path d="M 54.9316 0 L 57.666 0 L 30.5664 -70.459 L 28.0762 -70.459 L 0.976562 0 L 3.66211 0 L 12.9395 -24.4629 L 45.7031 -24.4629 Z M 29.1992 -67.0898 L 29.4434 -67.0898 L 44.8242 -26.709 L 13.8184 -26.709 Z"/>
  </g>
  <line id="Baseline-M" style="fill:none;stroke:#27AAE1;opacity:1;stroke-width:0.577;" x1="263" x2="3036" y1="1126" y2="1126"/>
  <line id="Capline-M" style="fill:none;stroke:#27AAE1;opacity:1;stroke-width:0.577;" x1="263" x2="3036" y1="1055.54" y2="1055.54"/>
  <g id="H-reference" style="fill:#27AAE1;stroke:none;" transform="matrix(1 0 0 1 339 1556)">
   <path d="M 54.9316 0 L 57.666 0 L 30.5664 -70.459 L 28.0762 -70.459 L 0.976562 0 L 3.66211 0 L 12.9395 -24.4629 L 45.7031 -24.4629 Z M 29.1992 -67.0898 L 29.4434 -67.0898 L 44.8242 -26.709 L 13.8184 -26.709 Z"/>
  </g>
  <line id="Baseline-L" style="fill:none;stroke:#27AAE1;opacity:1;stroke-width:0.577;" x1="263" x2="3036" y1="1556" y2="1556"/>
  <line id="Capline-L" style="fill:none;stroke:#27AAE1;opacity:1;stroke-width:0.577;" x1="263" x2="3036" y1="1485.54" y2="1485.54"/>
  <rect height="119.336" id="left-margin" style="fill:#00AEEF;stroke:none;opacity:0.4;" width="12.4512" x="1360.24" y="1030.79"/>
  <rect height="119.336" id="right-margin" style="fill:#00AEEF;stroke:none;opacity:0.4;" width="12.4512" x="1526.99" y="1030.79"/>
 </g>
 <g id="Symbols">
  <g id="Black-L" transform="matrix(1 0 0 1 2811.82 1556)">
   <path d="M 54.1504 18.75 L 164.307 18.75 C 177.979 18.75 186.914 16.748 193.652 10.0098 C 200.439 3.27148 202.344 -5.46875 202.344 -19.3359 L 202.344 -53.2715 C 202.344 -67.0898 200.439 -75.8789 193.652 -82.5684 C 186.865 -89.3066 177.979 -91.3574 164.307 -91.3574 L 54.1504 -91.3574 C 40.4297 -91.3574 31.4941 -89.3066 24.7559 -82.5684 C 18.0176 -75.8301 16.0645 -67.0898 16.0645 -53.2715 L 16.0645 -19.3359 C 16.0645 -5.46875 18.0176 3.32031 24.7559 10.0098 C 31.543 16.748 40.4297 18.75 54.1504 18.75 Z M 52.3926 -1.46484 C 45.8496 -1.46484 42.0898 -2.39258 39.5996 -4.83398 C 37.1094 -7.27539 36.3281 -10.9863 36.3281 -17.5293 L 36.3281 -55.0293 C 36.3281 -61.6211 37.1582 -65.2344 39.5996 -67.7246 C 42.041 -70.2148 45.8496 -71.0938 52.3926 -71.0938 L 166.064 -71.0938 C 172.559 -71.0938 176.318 -70.166 178.857 -67.7246 C 181.348 -65.2832 182.129 -61.6211 182.129 -55.0293 L 182.129 -17.5293 C 182.129 -10.9863 181.25 -7.32422 178.857 -4.83398 C 176.416 -2.34375 172.559 -1.46484 166.064 -1.46484 Z M 54.1992 -12.8906 L 164.209 -12.8906 C 166.602 -12.8906 168.066 -13.2324 169.238 -14.4043 C 170.361 -15.5273 170.703 -16.9922 170.703 -19.3848 L 170.703 -53.2227 C 170.703 -55.5664 170.361 -57.0801 169.238 -58.2031 C 168.066 -59.3262 166.602 -59.7168 164.209 -59.7168 L 54.1992 -59.7168 C 51.8555 -59.7168 50.3418 -59.3262 49.2188 -58.2031 C 48.0957 -57.0801 47.7051 -55.5664 47.7051 -53.2227 L 47.7051 -19.3848 C 47.7051 -16.9922 48.0957 -15.5273 49.2188 -14.4043 C 50.3418 -13.2324 51.8555 -12.8906 54.1992 -12.8906 Z M 213.77 -18.3105 C 219.482 -18.6523 227.1 -25.9277 227.1 -36.8652 C 227.1 -47.8027 219.482 -55.127 213.77 -55.4688 Z"/>
  </g>
  <g id="Heavy-L" transform="matrix(1 0 0 1 2516.82 1556)">
   <path d="M 52.9297 17.3828 L 163.477 17.3828 C 176.562 17.3828 185.4 15.5762 191.992 8.98438 C 198.535 2.44141 200.293 -6.25 200.293 -19.4336 L 200.293 -53.0762 C 200.293 -66.3086 198.535 -75 191.992 -81.543 C 185.352 -88.1348 176.562 -89.9414 163.477 -89.9414 L 52.832 -89.9414 C 39.7949 -89.9414 30.957 -88.1348 24.4141 -81.543 C 17.8223 -74.9512 16.0645 -66.3086 16.0645 -53.1738 L 16.0645 -19.4336 C 16.0645 -6.25 17.8223 2.49023 24.4141 8.98438 C 31.0059 15.5762 39.7949 17.3828 52.9297 17.3828 Z M 51.1719 -0.0976562 C 44.4824 -0.0976562 40.0391 -1.07422 37.207 -3.85742 C 34.4238 -6.5918 33.5938 -10.9863 33.5938 -17.6758 L 33.5938 -54.7852 C 33.5938 -61.5723 34.4727 -65.918 37.207 -68.7012 C 39.9902 -71.5332 44.5312 -72.4609 51.2207 -72.4609 L 165.186 -72.4609 C 171.875 -72.4609 176.318 -71.4844 179.15 -68.7012 C 181.934 -65.918 182.812 -61.5723 182.812 -54.834 L 182.812 -17.6758 C 182.812 -10.9863 181.885 -6.64062 179.15 -3.85742 C 176.367 -1.02539 171.875 -0.0976562 165.186 -0.0976562 Z M 52.3438 -10.6445 L 164.014 -10.6445 C 167.139 -10.6445 168.945 -11.084 170.41 -12.5 C 171.826 -13.916 172.266 -15.7715 172.266 -18.8965 L 172.266 -53.6621 C 172.266 -56.7383 171.777 -58.5938 170.41 -60.0586 C 168.994 -61.4746 167.139 -61.9141 164.014 -61.9141 L 52.3438 -61.9141 C 49.2188 -61.9141 47.4121 -61.4746 45.9961 -60.0586 C 44.5801 -58.5938 44.1406 -56.7383 44.1406 -53.6621 L 44.1406 -18.8965 C 44.1406 -15.7715 44.5801 -13.916 45.9961 -12.5 C 47.4121 -11.084 49.2188 -10.6445 52.3438 -10.6445 Z M 210.84 -18.9941 C 216.309 -19.2871 223.682 -26.3672 223.682 -36.8652 C 223.682 -47.4121 216.309 -54.4434 210.84 -54.7852 Z"/>
  </g>
  <g id="Bold-L" transform="matrix(1 0 0 1 2222.01 1556)">
   <path d="M 51.5137 15.8691 L 162.549 15.8691 C 174.951 15.8691 183.691 14.2578 190.088 7.91016 C 196.484 1.51367 197.998 -7.08008 197.998 -19.5801 L 197.998 -52.9297 C 197.998 -65.4297 196.484 -74.0234 190.088 -80.3711 C 183.643 -86.7676 174.951 -88.3789 162.549 -88.3789 L 51.3672 -88.3789 C 39.1113 -88.3789 30.3711 -86.7676 23.9746 -80.3711 C 17.627 -73.9746 16.0645 -65.3809 16.0645 -53.0762 L 16.0645 -19.5801 C 16.0645 -7.08008 17.5781 1.51367 23.9746 7.91016 C 30.4199 14.2578 39.0625 15.8691 51.5137 15.8691 Z M 49.8047 1.41602 C 42.9688 1.41602 37.7441 0.439453 34.5703 -2.68555 C 31.3965 -5.85938 30.5176 -10.9863 30.5176 -17.8223 L 30.5176 -54.4922 C 30.5176 -61.4746 31.4453 -66.6504 34.5703 -69.7754 C 37.6953 -72.998 43.0176 -73.9258 49.9512 -73.9258 L 164.258 -73.9258 C 171.045 -73.9258 176.318 -72.9004 179.492 -69.7754 C 182.666 -66.6504 183.545 -61.4746 183.545 -54.6387 L 183.545 -17.8223 C 183.545 -10.9863 182.617 -5.85938 179.492 -2.68555 C 176.318 0.488281 171.045 1.41602 164.258 1.41602 Z M 50.293 -8.1543 L 163.77 -8.1543 C 167.725 -8.1543 169.971 -8.69141 171.68 -10.4004 C 173.438 -12.1094 173.926 -14.4043 173.926 -18.3594 L 173.926 -54.1504 C 173.926 -58.0566 173.438 -60.3516 171.68 -62.0605 C 169.971 -63.8184 167.725 -64.3555 163.77 -64.3555 L 50.293 -64.3555 C 46.3379 -64.3555 44.0918 -63.8184 42.334 -62.0605 C 40.625 -60.3516 40.0879 -58.0566 40.0879 -54.1504 L 40.0879 -18.3594 C 40.0879 -14.4043 40.625 -12.1094 42.334 -10.4004 C 44.0918 -8.69141 46.3379 -8.1543 50.293 -8.1543 Z M 207.568 -19.7754 C 212.842 -20.0684 219.873 -26.8066 219.873 -36.8652 C 219.873 -46.9727 212.842 -53.7109 207.568 -54.0039 Z"/>
  </g>
  <g id="Semibold-L" transform="matrix(1 0 0 1 1926.62 1556)">
   <path d="M 50.5859 14.8438 L 161.865 14.8438 C 173.877 14.8438 182.471 13.3789 188.77 7.12891 C 195.02 0.830078 196.387 -7.61719 196.387 -19.6777 L 196.387 -52.7832 C 196.387 -64.8438 195.02 -73.3398 188.77 -79.5898 C 182.471 -85.8398 173.877 -87.3047 161.865 -87.3047 L 50.3418 -87.3047 C 38.623 -87.3047 29.9805 -85.8398 23.7305 -79.541 C 17.4316 -73.291 16.0645 -64.7949 16.0645 -52.9785 L 16.0645 -19.6777 C 16.0645 -7.61719 17.4316 0.878906 23.6816 7.12891 C 30.0293 13.3789 38.5742 14.8438 50.5859 14.8438 Z M 48.8281 2.49023 C 41.9434 2.49023 36.1816 1.46484 32.7637 -1.9043 C 29.3457 -5.32227 28.418 -10.9863 28.418 -17.9688 L 28.418 -54.2969 C 28.418 -61.4258 29.3457 -67.1387 32.7148 -70.5566 C 36.1328 -73.9746 41.9922 -74.9512 49.0723 -74.9512 L 163.623 -74.9512 C 170.508 -74.9512 176.318 -73.9258 179.736 -70.5078 C 183.105 -67.1387 184.082 -61.4258 184.082 -54.4922 L 184.082 -17.9688 C 184.082 -10.9863 183.105 -5.32227 179.736 -1.9043 C 176.318 1.51367 170.508 2.49023 163.623 2.49023 Z M 48.877 -6.44531 L 163.574 -6.44531 C 168.115 -6.44531 170.654 -7.03125 172.607 -8.93555 C 174.561 -10.8887 175.098 -13.4766 175.098 -17.9688 L 175.098 -54.4922 C 175.098 -58.9844 174.512 -61.5723 172.607 -63.4766 C 170.654 -65.4297 168.115 -66.0156 163.574 -66.0156 L 48.877 -66.0156 C 44.3359 -66.0156 41.7969 -65.4297 39.8438 -63.4766 C 37.9395 -61.5723 37.3535 -58.9844 37.3535 -54.4922 L 37.3535 -17.9688 C 37.3535 -13.4766 37.8906 -10.8887 39.8438 -8.93555 C 41.7969 -7.03125 44.3359 -6.44531 48.877 -6.44531 Z M 205.322 -20.2637 C 210.4 -20.5566 217.236 -27.0996 217.236 -36.8652 C 217.236 -46.6797 210.4 -53.1738 205.322 -53.4668 Z"/>
  </g>
  <g id="Medium-L" transform="matrix(1 0 0 1 1630.91 1556)">
   <path d="M 49.8535 14.0625 L 161.377 14.0625 C 173.047 14.0625 181.592 12.6953 187.744 6.54297 C 193.945 0.390625 195.166 -8.05664 195.166 -19.7266 L 195.166 -52.6855 C 195.166 -64.3555 193.945 -72.8516 187.744 -78.9551 C 181.543 -85.1562 173.047 -86.4746 161.377 -86.4746 L 49.6094 -86.4746 C 38.2812 -86.4746 29.6875 -85.1074 23.5352 -78.9551 C 17.334 -72.7539 16.0645 -64.3066 16.0645 -52.9297 L 16.0645 -19.7266 C 16.0645 -8.05664 17.334 0.390625 23.4863 6.54297 C 29.6875 12.6953 38.2324 14.0625 49.8535 14.0625 Z M 48.1445 3.32031 C 41.1621 3.32031 34.9609 2.24609 31.3477 -1.31836 C 27.7832 -4.93164 26.8066 -11.0352 26.8066 -18.0176 L 26.8066 -54.1504 C 26.8066 -61.377 27.7832 -67.5293 31.3477 -71.0938 C 34.9121 -74.7559 41.2109 -75.7324 48.3887 -75.7324 L 163.135 -75.7324 C 170.117 -75.7324 176.27 -74.6582 179.883 -71.0938 C 183.496 -67.4805 184.473 -61.4258 184.473 -54.3945 L 184.473 -18.0176 C 184.473 -11.0352 183.447 -4.93164 179.883 -1.31836 C 176.318 2.29492 170.117 3.32031 163.135 3.32031 Z M 47.8027 -5.12695 L 163.477 -5.12695 C 168.457 -5.12695 171.191 -5.76172 173.291 -7.86133 C 175.391 -9.96094 176.025 -12.7441 176.025 -17.6758 L 176.025 -54.7363 C 176.025 -59.668 175.391 -62.4512 173.291 -64.5508 C 171.191 -66.6992 168.457 -67.2852 163.477 -67.2852 L 47.8027 -67.2852 C 42.8223 -67.2852 40.0391 -66.6992 37.9883 -64.5508 C 35.8887 -62.4512 35.2539 -59.668 35.2539 -54.7363 L 35.2539 -17.6758 C 35.2539 -12.7441 35.8398 -9.96094 37.9883 -7.86133 C 40.0879 -5.76172 42.8223 -5.12695 47.8027 -5.12695 Z M 203.613 -20.6543 C 208.594 -20.9473 215.234 -27.3438 215.234 -36.8652 C 215.234 -46.4355 208.594 -52.7832 203.613 -53.0762 Z"/>
  </g>
  <g id="Regular-L" transform="matrix(1 0 0 1 1335.49 1556)">
   <path d="M 48.9258 12.9883 L 160.791 12.9883 C 171.924 12.9883 180.42 11.8164 186.475 5.76172 C 192.529 -0.244141 193.604 -8.64258 193.604 -19.8242 L 193.604 -52.5391 C 193.604 -63.7695 192.529 -72.168 186.475 -78.1738 C 180.371 -84.2285 171.924 -85.4004 160.791 -85.4004 L 48.584 -85.4004 C 37.793 -85.4004 29.2969 -84.1797 23.2422 -78.125 C 17.1875 -72.0703 16.0645 -63.7207 16.0645 -52.8809 L 16.0645 -19.8242 C 16.0645 -8.64258 17.1387 -0.244141 23.1934 5.76172 C 29.2969 11.8164 37.7441 12.9883 48.9258 12.9883 Z M 47.2168 4.3457 C 40.1367 4.3457 33.3984 3.27148 29.541 -0.585938 C 25.7324 -4.39453 24.707 -11.0352 24.707 -18.1152 L 24.707 -53.9551 C 24.707 -61.3281 25.7324 -68.0176 29.541 -71.875 C 33.3496 -75.7324 40.1855 -76.7578 47.5098 -76.7578 L 162.451 -76.7578 C 169.531 -76.7578 176.27 -75.6836 180.127 -71.8262 C 183.984 -67.9688 184.961 -61.377 184.961 -54.248 L 184.961 -18.1152 C 184.961 -11.0352 183.936 -4.39453 180.127 -0.585938 C 176.27 3.32031 169.531 4.3457 162.451 4.3457 Z M 46.3867 -3.41797 L 163.281 -3.41797 C 168.848 -3.41797 171.875 -4.15039 174.17 -6.44531 C 176.514 -8.74023 177.148 -11.8164 177.148 -17.2852 L 177.148 -55.0781 C 177.148 -60.5957 176.465 -63.623 174.17 -65.9668 C 171.875 -68.3105 168.848 -68.9453 163.281 -68.9453 L 46.3867 -68.9453 C 40.8203 -68.9453 37.793 -68.3105 35.498 -65.9668 C 33.2031 -63.623 32.5195 -60.5957 32.5195 -55.0781 L 32.5195 -17.2852 C 32.5195 -11.8164 33.1543 -8.74023 35.498 -6.44531 C 37.793 -4.15039 40.8203 -3.41797 46.3867 -3.41797 Z M 201.416 -21.1914 C 206.201 -21.4844 212.646 -27.6367 212.646 -36.8652 C 212.646 -46.1426 206.201 -52.2949 201.416 -52.5391 Z"/>
  </g>
  <g id="Light-L" transform="matrix(1 0 0 1 1040.51 1556)">
   <path d="M 47.8516 12.6465 L 160.059 12.6465 C 171.826 12.6465 179.492 11.2305 185.01 5.71289 C 190.576 0.195312 191.895 -7.37305 191.895 -19.1895 L 191.895 -52.3926 C 191.895 -64.209 190.576 -71.8262 185.01 -77.2949 C 179.443 -82.8125 171.826 -84.2285 160.059 -84.2285 L 47.3633 -84.2285 C 36.2305 -84.2285 28.5156 -82.7637 22.9492 -77.2461 C 17.4316 -71.7285 16.0645 -64.1113 16.0645 -52.8809 L 16.0645 -19.1895 C 16.0645 -7.37305 17.3828 0.244141 22.9004 5.71289 C 28.5156 11.2305 36.1328 12.6465 47.8516 12.6465 Z M 46.1914 6.00586 C 38.3301 6.00586 31.6895 4.6875 27.832 0.78125 C 23.9258 -3.07617 22.7051 -9.57031 22.7051 -17.4805 L 22.7051 -53.5645 C 22.7051 -61.9141 23.9258 -68.5547 27.7832 -72.4121 C 31.6406 -76.3672 38.4277 -77.5879 46.6797 -77.5879 L 161.719 -77.5879 C 169.629 -77.5879 176.221 -76.2695 180.127 -72.3633 C 183.984 -68.5059 185.254 -62.0117 185.254 -54.0527 L 185.254 -17.4805 C 185.254 -9.57031 183.936 -3.07617 180.127 0.78125 C 176.221 4.73633 169.629 6.00586 161.719 6.00586 Z M 45.9961 -0.683594 L 161.963 -0.683594 C 168.701 -0.683594 172.314 -1.51367 175.049 -4.19922 C 177.783 -6.88477 178.564 -10.6445 178.564 -17.2852 L 178.564 -54.2969 C 178.564 -60.9375 177.734 -64.6484 175.049 -67.3828 C 172.363 -70.1172 168.701 -70.8984 161.963 -70.8984 L 45.9961 -70.8984 C 39.209 -70.8984 35.5957 -70.1172 32.9102 -67.3828 C 30.1758 -64.6484 29.3457 -60.9375 29.3457 -54.2969 L 29.3457 -17.2852 C 29.3457 -10.6445 30.127 -6.88477 32.9102 -4.19922 C 35.6445 -1.51367 39.209 -0.683594 45.9961 -0.683594 Z M 198.535 -22.0215 C 203.076 -22.2656 209.18 -28.125 209.18 -36.8652 C 209.18 -45.6543 203.076 -51.4648 198.535 -51.7578 Z"/>
  </g>
  <g id="Thin-L" transform="matrix(1 0 0 1 746.071 1556)">
   <path d="M 46.4844 12.1582 L 159.131 12.1582 C 171.631 12.1582 178.271 10.4492 183.105 5.61523 C 187.988 0.78125 189.6 -5.71289 189.6 -18.3105 L 189.6 -52.1973 C 189.6 -64.7949 187.988 -71.3379 183.105 -76.123 C 178.223 -80.957 171.631 -82.666 159.131 -82.666 L 45.752 -82.666 C 34.1309 -82.666 27.4414 -80.9082 22.6074 -76.0254 C 17.7734 -71.1914 16.0645 -64.6484 16.0645 -52.9297 L 16.0645 -18.3105 C 16.0645 -5.71289 17.6758 0.830078 22.5098 5.61523 C 27.4414 10.4492 33.9844 12.1582 46.4844 12.1582 Z M 44.873 8.20312 C 35.9375 8.20312 29.4434 6.54297 25.5371 2.58789 C 21.582 -1.31836 19.9707 -7.61719 19.9707 -16.6504 L 19.9707 -53.0762 C 19.9707 -62.7441 21.582 -69.2383 25.4395 -73.1934 C 29.3945 -77.1973 36.084 -78.7109 45.6055 -78.7109 L 160.742 -78.7109 C 169.727 -78.7109 176.172 -77.0508 180.127 -73.0957 C 184.033 -69.1895 185.645 -62.8906 185.645 -53.8086 L 185.645 -16.6504 C 185.645 -7.61719 183.984 -1.31836 180.127 2.58789 C 176.172 6.5918 169.727 8.20312 160.742 8.20312 Z M 45.459 3.02734 L 160.156 3.02734 C 168.506 3.02734 172.9 2.00195 176.221 -1.2207 C 179.492 -4.44336 180.42 -9.08203 180.42 -17.2852 L 180.42 -53.2227 C 180.42 -61.4258 179.443 -65.9668 176.221 -69.2871 C 172.949 -72.5586 168.506 -73.4863 160.156 -73.4863 L 45.459 -73.4863 C 37.1094 -73.4863 32.666 -72.5586 29.4434 -69.2871 C 26.2207 -65.9668 25.1953 -61.4258 25.1953 -53.2227 L 25.1953 -17.2852 C 25.1953 -9.08203 26.123 -4.44336 29.4434 -1.2207 C 32.7637 2.00195 37.1094 3.02734 45.459 3.02734 Z M 194.775 -23.0957 C 198.975 -23.3398 204.639 -28.7598 204.639 -36.8652 C 204.639 -45.0195 198.975 -50.4395 194.775 -50.6836 Z"/>
  </g>
  <g id="Ultralight-L" transform="matrix(1 0 0 1 450.531 1556)">
   <path d="M 45.8008 11.9141 L 158.643 11.9141 C 171.533 11.9141 177.637 10.0586 182.129 5.56641 C 186.621 1.07422 188.379 -4.88281 188.379 -17.8223 L 188.379 -52.0996 C 188.379 -65.0879 186.621 -71.0938 182.129 -75.4883 C 177.539 -80.0293 171.533 -81.8359 158.643 -81.8359 L 44.9219 -81.8359 C 33.1055 -81.8359 26.9043 -79.9316 22.4121 -75.4395 C 17.9199 -70.9473 16.0645 -64.8926 16.0645 -52.9785 L 16.0645 -17.8223 C 16.0645 -4.88281 17.8223 1.17188 22.3145 5.56641 C 26.9043 10.0586 32.9102 11.9141 45.8008 11.9141 Z M 44.1895 9.32617 C 34.7168 9.32617 28.2715 7.4707 24.3652 3.51562 C 20.4102 -0.390625 18.6035 -6.64062 18.6035 -16.2598 L 18.6035 -52.832 C 18.6035 -63.1348 20.4102 -69.6289 24.2676 -73.584 C 28.2227 -77.6367 34.8633 -79.2969 45.0684 -79.2969 L 160.254 -79.2969 C 169.775 -79.2969 176.172 -77.4414 180.127 -73.4863 C 184.082 -69.5312 185.84 -63.3301 185.84 -53.7109 L 185.84 -16.2598 C 185.84 -6.64062 183.984 -0.390625 180.127 3.51562 C 176.172 7.56836 169.775 9.32617 160.254 9.32617 Z M 45.2148 4.88281 L 159.277 4.88281 C 168.408 4.88281 173.193 3.80859 176.807 0.292969 C 180.371 -3.22266 181.396 -8.25195 181.396 -17.2363 L 181.396 -52.6855 C 181.396 -61.6699 180.273 -66.6504 176.807 -70.2148 C 173.291 -73.8281 168.408 -74.8535 159.277 -74.8535 L 45.2148 -74.8535 C 36.0352 -74.8535 31.2012 -73.8281 27.6855 -70.2148 C 24.1699 -66.6504 23.0957 -61.6699 23.0957 -52.6855 L 23.0957 -17.2363 C 23.0957 -8.25195 24.0723 -3.22266 27.6855 0.292969 C 31.25 3.80859 36.0352 4.88281 45.2148 4.88281 Z M 192.871 -23.6328 C 196.875 -23.877 202.295 -29.0527 202.295 -36.8652 C 202.295 -44.6777 196.875 -49.9023 192.871 -50.1465 Z"/>
  </g>
  <g id="Black-M" transform="matrix(1 0 0 1 2837.79 1126)">
   <path d="M 43.0664 8.25195 L 128.076 8.25195 C 139.795 8.25195 146.436 6.29883 151.611 1.12305 C 156.787 -4.05273 158.691 -10.498 158.691 -22.3633 L 158.691 -49.3652 C 158.691 -61.2305 156.787 -67.7734 151.611 -72.8516 C 146.387 -78.0273 139.795 -79.9805 128.076 -79.9805 L 43.0664 -79.9805 C 31.3477 -79.9805 24.707 -78.0273 19.5312 -72.8516 C 14.3555 -67.6758 12.4512 -61.2305 12.4512 -49.3652 L 12.4512 -22.3633 C 12.4512 -10.498 14.3555 -4.00391 19.5312 1.12305 C 24.7559 6.29883 31.3477 8.25195 43.0664 8.25195 Z M 41.6992 -10.0586 C 36.377 -10.0586 34.4727 -10.8398 32.959 -12.3047 C 31.4453 -13.7695 30.7617 -15.625 30.7617 -20.9961 L 30.7617 -50.7324 C 30.7617 -56.1035 31.4941 -57.9102 32.959 -59.4238 C 34.4238 -60.9375 36.377 -61.7188 41.6992 -61.7188 L 129.443 -61.7188 C 134.766 -61.7188 136.67 -60.8887 138.184 -59.4238 C 139.697 -57.959 140.381 -56.1035 140.381 -50.7324 L 140.381 -20.9961 C 140.381 -15.625 139.648 -13.8184 138.184 -12.3047 C 136.719 -10.791 134.766 -10.0586 129.443 -10.0586 Z M 44.2871 -19.4336 L 126.855 -19.4336 C 128.32 -19.4336 129.297 -19.6777 130.029 -20.4102 C 130.762 -21.1426 131.006 -22.1191 131.006 -23.584 L 131.006 -48.1445 C 131.006 -49.6094 130.762 -50.5859 130.029 -51.3184 C 129.297 -52.0508 128.32 -52.2949 126.855 -52.2949 L 44.2871 -52.2949 C 42.8223 -52.2949 41.8457 -52.0508 41.1133 -51.3184 C 40.3809 -50.5859 40.1367 -49.6094 40.1367 -48.1445 L 40.1367 -23.584 C 40.1367 -22.1191 40.3809 -21.1426 41.1133 -20.4102 C 41.8457 -19.6777 42.8223 -19.4336 44.2871 -19.4336 Z M 168.066 -21.6309 C 172.656 -21.875 178.76 -27.7832 178.76 -36.5234 C 178.76 -45.2637 172.656 -51.123 168.066 -51.3672 Z"/>
  </g>
  <g id="Heavy-M" transform="matrix(1 0 0 1 2542.5 1126)">
   <path d="M 41.9922 6.88477 L 127.344 6.88477 C 138.281 6.88477 145.02 5.17578 150.146 0.0488281 C 155.273 -5.07812 156.885 -11.6211 156.885 -22.7051 L 156.885 -49.2188 C 156.885 -60.2539 155.273 -66.8945 150.146 -71.9727 C 144.971 -77.0508 138.281 -78.7598 127.344 -78.7598 L 41.9434 -78.7598 C 31.0547 -78.7598 24.3164 -77.0508 19.1895 -71.9238 C 14.0625 -66.8457 12.4512 -60.2539 12.4512 -49.2676 L 12.4512 -22.7051 C 12.4512 -11.6211 14.0625 -5.0293 19.1895 0.0488281 C 24.3652 5.17578 31.0547 6.88477 41.9922 6.88477 Z M 40.625 -8.98438 C 35.4004 -8.98438 32.666 -9.76562 30.8105 -11.5723 C 28.9551 -13.3789 28.2715 -16.0156 28.2715 -21.3379 L 28.2715 -50.5371 C 28.2715 -55.8594 29.0039 -58.4961 30.8105 -60.3516 C 32.6172 -62.207 35.4004 -62.9395 40.6738 -62.9395 L 128.711 -62.9395 C 133.936 -62.9395 136.67 -62.1582 138.525 -60.3516 C 140.381 -58.4961 141.064 -55.8594 141.064 -50.5859 L 141.064 -21.3379 C 141.064 -16.0156 140.332 -13.4277 138.525 -11.5723 C 136.719 -9.7168 133.936 -8.98438 128.711 -8.98438 Z M 42.3828 -17.7246 L 126.953 -17.7246 C 128.955 -17.7246 130.176 -18.0176 131.104 -18.9453 C 132.031 -19.873 132.324 -21.0938 132.324 -23.0469 L 132.324 -48.8281 C 132.324 -50.7812 132.031 -52.0508 131.104 -52.9785 C 130.176 -53.9062 128.955 -54.1992 126.953 -54.1992 L 42.3828 -54.1992 C 40.3809 -54.1992 39.1602 -53.9062 38.2324 -52.9785 C 37.3047 -52.0508 37.0117 -50.7812 37.0117 -48.8281 L 37.0117 -23.0469 C 37.0117 -21.0938 37.3047 -19.873 38.2324 -18.9453 C 39.1602 -18.0176 40.3809 -17.7246 42.3828 -17.7246 Z M 165.625 -22.168 C 170.02 -22.4121 175.928 -28.0762 175.928 -36.5234 C 175.928 -44.9707 170.02 -50.5859 165.625 -50.8301 Z"/>
  </g>
  <g id="Bold-M" transform="matrix(1 0 0 1 2247.38 1126)">
   <path d="M 40.7715 5.32227 L 126.514 5.32227 C 136.572 5.32227 143.408 3.95508 148.486 -1.12305 C 153.564 -6.20117 154.883 -12.9395 154.883 -23.0469 L 154.883 -49.0723 C 154.883 -59.1797 153.564 -65.918 148.486 -70.9473 C 143.359 -76.0254 136.572 -77.3926 126.514 -77.3926 L 40.7227 -77.3926 C 30.7617 -77.3926 23.9258 -76.0254 18.8477 -70.9473 C 13.7695 -65.8691 12.4512 -59.1309 12.4512 -49.1211 L 12.4512 -23.0469 C 12.4512 -12.9395 13.7695 -6.20117 18.8477 -1.12305 C 23.9746 3.95508 30.7617 5.32227 40.7715 5.32227 Z M 39.4531 -7.76367 C 34.2773 -7.76367 30.6641 -8.49609 28.418 -10.7422 C 26.1719 -12.9395 25.5371 -16.4551 25.5371 -21.6797 L 25.5371 -50.3418 C 25.5371 -55.6152 26.2207 -59.1309 28.418 -61.377 C 30.6152 -63.623 34.2773 -64.3066 39.502 -64.3066 L 127.881 -64.3066 C 133.057 -64.3066 136.67 -63.5742 138.867 -61.3281 C 141.113 -59.1309 141.797 -55.6152 141.797 -50.3906 L 141.797 -21.6797 C 141.797 -16.4551 141.113 -12.9883 138.867 -10.7422 C 136.67 -8.49609 133.057 -7.76367 127.881 -7.76367 Z M 40.2344 -15.8203 L 127.1 -15.8203 C 129.639 -15.8203 131.104 -16.1621 132.275 -17.2852 C 133.398 -18.457 133.74 -19.9219 133.74 -22.4609 L 133.74 -49.6094 C 133.74 -52.1484 133.398 -53.6133 132.275 -54.7852 C 131.104 -55.9082 129.639 -56.2988 127.1 -56.2988 L 40.2344 -56.2988 C 37.6953 -56.2988 36.1816 -55.9082 35.0586 -54.7852 C 33.9355 -53.6133 33.5449 -52.1484 33.5449 -49.6094 L 33.5449 -22.4609 C 33.5449 -19.9219 33.8867 -18.457 35.0586 -17.2852 C 36.1816 -16.1621 37.6953 -15.8203 40.2344 -15.8203 Z M 162.891 -22.7539 C 167.09 -22.998 172.754 -28.418 172.754 -36.5234 C 172.754 -44.5801 167.09 -50 162.891 -50.2441 Z"/>
  </g>
  <g id="Semibold-M" transform="matrix(1 0 0 1 1951.76 1126)">
   <path d="M 39.9414 4.24805 L 125.977 4.24805 C 135.4 4.24805 142.285 3.07617 147.314 -1.95312 C 152.393 -7.03125 153.467 -13.8184 153.467 -23.2422 L 153.467 -48.9258 C 153.467 -58.3984 152.393 -65.2344 147.314 -70.2148 C 142.285 -75.293 135.4 -76.416 125.977 -76.416 L 39.8438 -76.416 C 30.5664 -76.416 23.6328 -75.2441 18.6035 -70.2148 C 13.5742 -65.1855 12.4512 -58.3984 12.4512 -49.0234 L 12.4512 -23.2422 C 12.4512 -13.8184 13.5254 -6.98242 18.6035 -1.95312 C 23.6816 3.07617 30.5176 4.24805 39.9414 4.24805 Z M 38.623 -6.93359 C 33.4961 -6.93359 29.2969 -7.66602 26.7578 -10.1562 C 24.2676 -12.6465 23.6328 -16.748 23.6328 -21.9238 L 23.6328 -50.1953 C 23.6328 -55.4199 24.3164 -59.5703 26.7578 -62.0605 C 29.248 -64.5508 33.4961 -65.2832 38.6719 -65.2832 L 127.344 -65.2832 C 132.422 -65.2832 136.621 -64.5508 139.16 -62.0605 C 141.65 -59.5703 142.285 -55.4199 142.285 -50.293 L 142.285 -21.9238 C 142.285 -16.748 141.602 -12.6465 139.16 -10.1562 C 136.67 -7.61719 132.422 -6.93359 127.344 -6.93359 Z M 38.7695 -14.4531 L 127.148 -14.4531 C 130.127 -14.4531 131.787 -14.8926 133.057 -16.1621 C 134.375 -17.4316 134.766 -19.1406 134.766 -22.0703 L 134.766 -50.1465 C 134.766 -53.0762 134.375 -54.7363 133.057 -56.0547 C 131.787 -57.3242 130.127 -57.7148 127.148 -57.7148 L 38.7695 -57.7148 C 35.791 -57.7148 34.1309 -57.3242 32.8613 -56.0547 C 31.543 -54.7363 31.1523 -53.0762 31.1523 -50.1465 L 31.1523 -22.0703 C 31.1523 -19.1406 31.543 -17.4316 32.8613 -16.1621 C 34.1309 -14.8926 35.791 -14.4531 38.7695 -14.4531 Z M 160.986 -23.1934 C 165.088 -23.3887 170.557 -28.6621 170.557 -36.5234 C 170.557 -44.3848 165.088 -49.6094 160.986 -49.8535 Z"/>
  </g>
  <g id="Medium-M" transform="matrix(1 0 0 1 1655.88 1126)">
   <path d="M 39.3066 3.41797 L 125.537 3.41797 C 134.473 3.41797 141.455 2.44141 146.484 -2.58789 C 151.465 -7.61719 152.393 -14.4531 152.393 -23.4375 L 152.393 -48.8281 C 152.393 -57.8125 151.465 -64.6973 146.484 -69.7266 C 141.406 -74.707 134.473 -75.7324 125.537 -75.7324 L 39.209 -75.7324 C 30.3711 -75.7324 23.4375 -74.707 18.4082 -69.6777 C 13.3789 -64.6973 12.4512 -57.8125 12.4512 -48.9746 L 12.4512 -23.4375 C 12.4512 -14.4531 13.3789 -7.56836 18.4082 -2.58789 C 23.4375 2.44141 30.3711 3.41797 39.3066 3.41797 Z M 37.9883 -6.29883 C 32.9102 -6.29883 28.2227 -7.03125 25.5371 -9.7168 C 22.8027 -12.4023 22.168 -16.9922 22.168 -22.1191 L 22.168 -50.0977 C 22.168 -55.2734 22.8516 -59.9121 25.5371 -62.5977 C 28.2227 -65.2832 32.9102 -65.9668 38.0859 -65.9668 L 126.904 -65.9668 C 131.982 -65.9668 136.621 -65.2832 139.355 -62.5977 C 142.041 -59.9121 142.676 -55.2734 142.676 -50.1953 L 142.676 -22.1191 C 142.676 -16.9922 141.992 -12.4023 139.355 -9.7168 C 136.67 -6.98242 131.982 -6.29883 126.904 -6.29883 Z M 37.6465 -13.4766 L 127.246 -13.4766 C 130.469 -13.4766 132.275 -13.916 133.691 -15.2832 C 135.107 -16.6992 135.498 -18.5547 135.498 -21.7773 L 135.498 -50.5371 C 135.498 -53.7598 135.107 -55.5664 133.691 -56.9824 C 132.275 -58.3984 130.469 -58.8379 127.246 -58.8379 L 37.6465 -58.8379 C 34.375 -58.8379 32.5684 -58.3984 31.1523 -56.9824 C 29.7852 -55.5664 29.3457 -53.7598 29.3457 -50.5371 L 29.3457 -21.7773 C 29.3457 -18.5547 29.7852 -16.6992 31.1523 -15.2832 C 32.5684 -13.916 34.375 -13.4766 37.6465 -13.4766 Z M 159.57 -23.4863 C 163.574 -23.7305 168.896 -28.8086 168.896 -36.5234 C 168.896 -44.1895 163.574 -49.3164 159.57 -49.5117 Z"/>
  </g>
  <g id="Regular-M" transform="matrix(1 0 0 1 1360.24 1126)">
   <path d="M 38.4766 2.34375 L 125 2.34375 C 133.35 2.34375 140.332 1.5625 145.312 -3.41797 C 150.293 -8.39844 151.025 -15.332 151.025 -23.6816 L 151.025 -48.7305 C 151.025 -57.0801 150.293 -64.0625 145.312 -68.9941 C 140.332 -73.9746 133.35 -74.8047 125 -74.8047 L 38.3789 -74.8047 C 30.1758 -74.8047 23.1445 -73.9746 18.1641 -68.9941 C 13.1836 -64.0137 12.4512 -57.0801 12.4512 -48.877 L 12.4512 -23.6816 C 12.4512 -15.332 13.1836 -8.34961 18.1641 -3.41797 C 23.1445 1.5625 30.1758 2.34375 38.4766 2.34375 Z M 37.1582 -5.51758 C 32.1289 -5.51758 26.8555 -6.20117 23.877 -9.13086 C 20.9473 -12.1094 20.3125 -17.2852 20.3125 -22.3145 L 20.3125 -49.9512 C 20.3125 -55.0781 20.9473 -60.3516 23.877 -63.2812 C 26.8555 -66.2598 32.1777 -66.9434 37.3047 -66.9434 L 126.318 -66.9434 C 131.348 -66.9434 136.621 -66.2109 139.6 -63.2812 C 142.529 -60.3027 143.164 -55.127 143.164 -50.0977 L 143.164 -22.3145 C 143.164 -17.2852 142.529 -12.1094 139.6 -9.13086 C 136.621 -6.15234 131.348 -5.51758 126.318 -5.51758 Z M 36.1816 -12.1582 L 127.344 -12.1582 C 130.957 -12.1582 132.959 -12.6465 134.473 -14.1602 C 136.035 -15.7227 136.523 -17.7734 136.523 -21.3379 L 136.523 -51.0742 C 136.523 -54.6875 136.035 -56.6895 134.473 -58.252 C 132.959 -59.8145 130.957 -60.2539 127.344 -60.2539 L 36.1816 -60.2539 C 32.5195 -60.2539 30.5176 -59.8145 29.0039 -58.252 C 27.4414 -56.6895 27.002 -54.6875 27.002 -51.0742 L 27.002 -21.3379 C 27.002 -17.7734 27.4414 -15.7227 29.0039 -14.1602 C 30.5664 -12.6465 32.5195 -12.1582 36.1816 -12.1582 Z M 157.715 -23.877 C 161.572 -24.1211 166.748 -29.0527 166.748 -36.5234 C 166.748 -43.9453 161.572 -48.877 157.715 -49.1211 Z"/>
  </g>
  <g id="Light-M" transform="matrix(1 0 0 1 1065.07 1126)">
   <path d="M 37.5488 2.05078 L 124.365 2.05078 C 133.203 2.05078 139.502 1.02539 144.043 -3.4668 C 148.535 -8.00781 149.463 -14.209 149.463 -23.0957 L 149.463 -48.584 C 149.463 -57.4707 148.535 -63.7207 144.043 -68.2129 C 139.502 -72.7539 133.203 -73.7305 124.365 -73.7305 L 37.2559 -73.7305 C 28.7598 -73.7305 22.4609 -72.7051 17.9199 -68.2129 C 13.4277 -63.6719 12.4512 -57.4219 12.4512 -48.9258 L 12.4512 -23.0957 C 12.4512 -14.209 13.3789 -7.95898 17.8711 -3.4668 C 22.4609 1.02539 28.7109 2.05078 37.5488 2.05078 Z M 36.2305 -4.00391 C 30.5176 -4.00391 25.3418 -4.93164 22.3145 -7.91016 C 19.3359 -10.8887 18.5059 -16.0156 18.5059 -21.7773 L 18.5059 -49.6094 C 18.5059 -55.6152 19.3359 -60.791 22.3145 -63.8184 C 25.293 -66.8457 30.5664 -67.6758 36.5723 -67.6758 L 125.684 -67.6758 C 131.445 -67.6758 136.621 -66.748 139.6 -63.7695 C 142.578 -60.791 143.457 -55.7129 143.457 -49.9023 L 143.457 -21.7773 C 143.457 -16.0156 142.529 -10.8887 139.6 -7.91016 C 136.621 -4.88281 131.445 -4.00391 125.684 -4.00391 Z M 35.791 -9.66797 L 126.123 -9.66797 C 130.811 -9.66797 133.35 -10.2539 135.254 -12.1582 C 137.207 -14.0625 137.744 -16.6992 137.744 -21.3379 L 137.744 -50.3418 C 137.744 -54.9805 137.158 -57.5684 135.254 -59.5215 C 133.35 -61.4746 130.811 -62.0117 126.123 -62.0117 L 35.791 -62.0117 C 31.1035 -62.0117 28.5645 -61.4746 26.6602 -59.5215 C 24.7559 -57.5684 24.1699 -54.9805 24.1699 -50.3418 L 24.1699 -21.3379 C 24.1699 -16.6992 24.707 -14.0625 26.6602 -12.1582 C 28.6133 -10.2539 31.1035 -9.66797 35.791 -9.66797 Z M 155.127 -24.6094 C 158.789 -24.8535 163.672 -29.4922 163.672 -36.5234 C 163.672 -43.5059 158.789 -48.1934 155.127 -48.3887 Z"/>
  </g>
  <g id="Thin-M" transform="matrix(1 0 0 1 770.411 1126)">
   <path d="M 36.3281 1.61133 L 123.535 1.61133 C 133.057 1.61133 138.428 0.341797 142.334 -3.56445 C 146.24 -7.4707 147.412 -12.6953 147.412 -22.3145 L 147.412 -48.4375 C 147.412 -58.0078 146.24 -63.3301 142.334 -67.1875 C 138.379 -71.0938 133.057 -72.3145 123.535 -72.3145 L 35.8398 -72.3145 C 26.9043 -72.3145 21.4844 -70.9961 17.5781 -67.1387 C 13.6719 -63.2324 12.4512 -57.9102 12.4512 -48.9746 L 12.4512 -22.3145 C 12.4512 -12.6953 13.623 -7.42188 17.5293 -3.56445 C 21.4844 0.341797 26.8066 1.61133 36.3281 1.61133 Z M 35.0586 -2.05078 C 28.3691 -2.05078 23.291 -3.27148 20.2637 -6.29883 C 17.2363 -9.32617 16.0645 -14.2578 16.0645 -21.0449 L 16.0645 -49.1699 C 16.0645 -56.3477 17.2363 -61.4258 20.2148 -64.502 C 23.2422 -67.5781 28.4668 -68.7012 35.5957 -68.7012 L 124.805 -68.7012 C 131.494 -68.7012 136.572 -67.4805 139.6 -64.4531 C 142.627 -61.377 143.799 -56.4453 143.799 -49.707 L 143.799 -21.0449 C 143.799 -14.2578 142.578 -9.32617 139.6 -6.29883 C 136.572 -3.22266 131.494 -2.05078 124.805 -2.05078 Z M 35.3516 -6.39648 L 124.512 -6.39648 C 130.615 -6.39648 133.838 -7.12891 136.279 -9.52148 C 138.77 -11.9141 139.453 -15.2832 139.453 -21.2891 L 139.453 -49.4141 C 139.453 -55.4199 138.672 -58.7402 136.279 -61.1816 C 133.936 -63.623 130.615 -64.3555 124.512 -64.3555 L 35.3516 -64.3555 C 29.248 -64.3555 25.9766 -63.623 23.584 -61.1816 C 21.1914 -58.7402 20.459 -55.4199 20.459 -49.4141 L 20.459 -21.2891 C 20.459 -15.2832 21.1426 -11.9141 23.584 -9.52148 C 26.0254 -7.12891 29.248 -6.39648 35.3516 -6.39648 Z M 151.758 -25.5859 C 155.078 -25.7812 159.57 -30.0781 159.57 -36.5234 C 159.57 -42.9688 155.078 -47.2168 151.758 -47.4121 Z"/>
  </g>
  <g id="Ultralight-M" transform="matrix(1 0 0 1 474.726 1126)">
   <path d="M 35.6934 1.36719 L 123.096 1.36719 C 132.959 1.36719 137.842 0 141.455 -3.61328 C 145.02 -7.17773 146.387 -11.9629 146.387 -21.875 L 146.387 -48.3398 C 146.387 -58.3008 145.02 -63.0859 141.455 -66.6504 C 137.793 -70.2148 132.959 -71.582 123.096 -71.582 L 35.0586 -71.582 C 25.9766 -71.582 20.9961 -70.166 17.4316 -66.5527 C 13.8184 -62.9883 12.4512 -58.1543 12.4512 -48.9746 L 12.4512 -21.875 C 12.4512 -11.9629 13.7695 -7.12891 17.3828 -3.61328 C 20.9961 0 25.8301 1.36719 35.6934 1.36719 Z M 34.4727 -1.02539 C 27.2461 -1.02539 22.2656 -2.39258 19.2383 -5.46875 C 16.1621 -8.49609 14.8438 -13.3789 14.8438 -20.6543 L 14.8438 -48.9746 C 14.8438 -56.7383 16.1621 -61.7676 19.1406 -64.8438 C 22.2168 -67.9688 27.3926 -69.1895 35.1074 -69.1895 L 124.365 -69.1895 C 131.543 -69.1895 136.523 -67.8223 139.6 -64.7461 C 142.627 -61.7188 143.994 -56.8359 143.994 -49.6094 L 143.994 -20.6543 C 143.994 -13.3789 142.578 -8.49609 139.6 -5.46875 C 136.523 -2.34375 131.543 -1.02539 124.365 -1.02539 Z M 35.1074 -4.6875 L 123.682 -4.6875 C 130.566 -4.6875 134.131 -5.51758 136.816 -8.1543 C 139.551 -10.791 140.283 -14.5508 140.283 -21.2891 L 140.283 -48.9258 C 140.283 -55.6641 139.453 -59.375 136.816 -62.0605 C 134.18 -64.7461 130.566 -65.5273 123.682 -65.5273 L 35.1074 -65.5273 C 28.2715 -65.5273 24.6094 -64.7461 21.9727 -62.0605 C 19.3359 -59.375 18.5059 -55.6641 18.5059 -48.9258 L 18.5059 -21.2891 C 18.5059 -14.5508 19.2871 -10.791 21.9727 -8.1543 C 24.707 -5.51758 28.2715 -4.6875 35.1074 -4.6875 Z M 150.049 -26.0742 C 153.223 -26.2695 157.52 -30.3711 157.52 -36.5234 C 157.52 -42.6758 153.223 -46.7285 150.049 -46.9238 Z"/>
  </g>
  <g id="Black-S" transform="matrix(1 0 0 1 2858.57 696)">
   <path d="M 33.6914 -1.26953 L 100.293 -1.26953 C 109.424 -1.26953 114.648 -2.7832 118.701 -6.83594 C 122.754 -10.8887 124.219 -15.9668 124.219 -25.1953 L 124.219 -46.2891 C 124.219 -55.5176 122.754 -60.6445 118.701 -64.6484 C 114.6 -68.7012 109.424 -70.2148 100.293 -70.2148 L 33.6914 -70.2148 C 24.5605 -70.2148 19.3359 -68.7012 15.2832 -64.6484 C 11.2305 -60.5957 9.76562 -55.5176 9.76562 -46.2891 L 9.76562 -25.1953 C 9.76562 -15.9668 11.2305 -10.8398 15.2832 -6.83594 C 19.3848 -2.7832 24.5605 -1.26953 33.6914 -1.26953 Z M 32.6172 -15.4297 C 28.4668 -15.4297 26.9043 -16.0645 25.6836 -17.2363 C 24.4629 -18.4082 23.9258 -19.9219 23.9258 -24.1211 L 23.9258 -47.3633 C 23.9258 -51.5625 24.5117 -53.0273 25.6836 -54.248 C 26.8555 -55.4688 28.4668 -56.0547 32.6172 -56.0547 L 101.367 -56.0547 C 105.518 -56.0547 107.08 -55.4199 108.301 -54.248 C 109.521 -53.0762 110.059 -51.5625 110.059 -47.3633 L 110.059 -24.1211 C 110.059 -19.9219 109.473 -18.457 108.301 -17.2363 C 107.129 -16.0156 105.518 -15.4297 101.367 -15.4297 Z M 34.5703 -22.7539 L 99.4141 -22.7539 C 100.586 -22.7539 101.367 -22.9492 101.953 -23.5352 C 102.539 -24.1211 102.734 -24.9023 102.734 -26.0742 L 102.734 -45.4102 C 102.734 -46.582 102.539 -47.3633 101.953 -47.9492 C 101.367 -48.5352 100.586 -48.7305 99.4141 -48.7305 L 34.5703 -48.7305 C 33.3984 -48.7305 32.6172 -48.5352 32.0312 -47.9492 C 31.4453 -47.3633 31.25 -46.582 31.25 -45.4102 L 31.25 -26.0742 C 31.25 -24.9023 31.4453 -24.1211 32.0312 -23.5352 C 32.6172 -22.9492 33.3984 -22.7539 34.5703 -22.7539 Z M 131.543 -24.6094 C 135.107 -24.8047 139.893 -29.3945 139.893 -36.2305 C 139.893 -43.0664 135.107 -47.6562 131.543 -47.8516 Z"/>
  </g>
  <g id="Heavy-S" transform="matrix(1 0 0 1 2562.76 696)">
   <path d="M 32.959 -2.29492 L 99.8047 -2.29492 C 108.252 -2.29492 113.623 -3.56445 117.725 -7.66602 C 121.777 -11.7188 122.998 -16.9434 122.998 -25.4883 L 122.998 -46.1914 C 122.998 -54.7363 121.777 -60.0098 117.725 -64.0625 C 113.623 -68.1152 108.252 -69.3848 99.8047 -69.3848 L 32.959 -69.3848 C 24.5117 -69.3848 19.1406 -68.1152 15.0879 -64.0625 C 10.9863 -59.9609 9.76562 -54.7363 9.76562 -46.1914 L 9.76562 -25.4883 C 9.76562 -16.9434 10.9863 -11.6699 15.0879 -7.66602 C 19.1895 -3.56445 24.5117 -2.29492 32.959 -2.29492 Z M 31.8848 -14.7949 C 27.8809 -14.7949 25.6836 -15.3809 24.2188 -16.7969 C 22.7539 -18.2617 22.2656 -20.3613 22.2656 -24.4141 L 22.2656 -47.2656 C 22.2656 -51.3184 22.8027 -53.418 24.2188 -54.8828 C 25.6348 -56.3477 27.8809 -56.9336 31.8848 -56.9336 L 100.879 -56.9336 C 104.883 -56.9336 107.08 -56.3477 108.545 -54.8828 C 110.01 -53.4668 110.547 -51.3184 110.547 -47.2656 L 110.547 -24.4141 C 110.547 -20.3613 110.01 -18.2617 108.545 -16.7969 C 107.129 -15.332 104.883 -14.7949 100.879 -14.7949 Z M 33.1543 -21.7285 L 99.6582 -21.7285 C 101.074 -21.7285 102.002 -21.9238 102.686 -22.6562 C 103.369 -23.3398 103.564 -24.2188 103.564 -25.6836 L 103.564 -45.9961 C 103.564 -47.4609 103.369 -48.3398 102.686 -49.0723 C 102.002 -49.7559 101.074 -49.9512 99.6582 -49.9512 L 33.1543 -49.9512 C 31.6895 -49.9512 30.8105 -49.7559 30.0781 -49.0723 C 29.3945 -48.3398 29.1992 -47.4609 29.1992 -45.9961 L 29.1992 -25.6836 C 29.1992 -24.2188 29.3945 -23.3398 30.0781 -22.6562 C 30.8105 -21.9238 31.6895 -21.7285 33.1543 -21.7285 Z M 129.932 -24.9512 C 133.398 -25.1465 138.086 -29.5898 138.086 -36.2305 C 138.086 -42.8711 133.398 -47.3145 129.932 -47.5098 Z"/>
  </g>
  <g id="Bold-S" transform="matrix(1 0 0 1 2267.08 696)">
   <path d="M 32.1777 -3.4668 L 99.2676 -3.4668 C 106.982 -3.4668 112.5 -4.44336 116.602 -8.54492 C 120.703 -12.6465 121.68 -18.0664 121.68 -25.8301 L 121.68 -46.0938 C 121.68 -53.8574 120.703 -59.3262 116.602 -63.3789 C 112.5 -67.4805 106.982 -68.457 99.2676 -68.457 L 32.1289 -68.457 C 24.4629 -68.457 18.8965 -67.4316 14.8438 -63.3789 C 10.7422 -59.2773 9.76562 -53.8574 9.76562 -46.0938 L 9.76562 -25.8301 C 9.76562 -18.0664 10.7422 -12.5977 14.8438 -8.54492 C 18.9453 -4.44336 24.4629 -3.4668 32.1777 -3.4668 Z M 31.1035 -14.0625 C 27.1973 -14.0625 24.3652 -14.5996 22.6074 -16.3086 C 20.8008 -18.0664 20.3613 -20.8496 20.3613 -24.7559 L 20.3613 -47.1191 C 20.3613 -51.0254 20.8496 -53.8574 22.6074 -55.6152 C 24.3164 -57.373 27.1973 -57.8613 31.1035 -57.8613 L 100.342 -57.8613 C 104.199 -57.8613 107.08 -57.3242 108.838 -55.6152 C 110.596 -53.8574 111.035 -51.0254 111.035 -47.168 L 111.035 -24.7559 C 111.035 -20.8496 110.596 -18.0664 108.838 -16.3086 C 107.08 -14.5508 104.199 -14.0625 100.342 -14.0625 Z M 31.543 -20.5566 L 99.9023 -20.5566 C 101.611 -20.5566 102.686 -20.8008 103.467 -21.6309 C 104.297 -22.4121 104.541 -23.4863 104.541 -25.1953 L 104.541 -46.6797 C 104.541 -48.4375 104.297 -49.4629 103.467 -50.293 C 102.686 -51.123 101.611 -51.3672 99.9023 -51.3672 L 31.543 -51.3672 C 29.7852 -51.3672 28.7598 -51.123 27.9297 -50.293 C 27.1484 -49.4629 26.9043 -48.4375 26.9043 -46.6797 L 26.9043 -25.1953 C 26.9043 -23.4863 27.1484 -22.4121 27.9297 -21.6309 C 28.7598 -20.8008 29.7852 -20.5566 31.543 -20.5566 Z M 128.174 -25.293 C 131.543 -25.4883 136.035 -29.7852 136.035 -36.2305 C 136.035 -42.6758 131.543 -46.9727 128.174 -47.168 Z"/>
  </g>
  <g id="Semibold-S" transform="matrix(1 0 0 1 1971.07 696)">
   <path d="M 31.5918 -4.24805 L 98.877 -4.24805 C 106.104 -4.24805 111.719 -5.07812 115.82 -9.17969 C 119.922 -13.2812 120.703 -18.8477 120.703 -26.0742 L 120.703 -45.9961 C 120.703 -53.2227 119.922 -58.7891 115.82 -62.8906 C 111.719 -66.9922 106.104 -67.8223 98.877 -67.8223 L 31.5918 -67.8223 C 24.4141 -67.8223 18.75 -66.9922 14.6484 -62.8906 C 10.5469 -58.7891 9.76562 -53.2227 9.76562 -46.0449 L 9.76562 -26.0742 C 9.76562 -18.8477 10.5469 -13.2812 14.6484 -9.17969 C 18.7988 -5.07812 24.4141 -4.24805 31.5918 -4.24805 Z M 30.5176 -13.5254 C 26.7578 -13.5254 23.3887 -14.0137 21.4355 -15.9668 C 19.4824 -17.9199 19.0918 -21.1914 19.0918 -25 L 19.0918 -47.0703 C 19.0918 -50.8301 19.5312 -54.1504 21.4355 -56.1035 C 23.3887 -58.0566 26.7578 -58.5449 30.5664 -58.5449 L 99.9512 -58.5449 C 103.711 -58.5449 107.08 -58.0566 109.033 -56.1035 C 110.986 -54.1504 111.426 -50.8789 111.426 -47.0703 L 111.426 -25 C 111.426 -21.1914 110.986 -17.9199 109.033 -15.9668 C 107.08 -14.0137 103.711 -13.5254 99.9512 -13.5254 Z M 30.4199 -19.7754 L 100.049 -19.7754 C 102.002 -19.7754 103.125 -20.0195 104.053 -20.9473 C 104.932 -21.8262 105.176 -22.9492 105.176 -24.9023 L 105.176 -47.168 C 105.176 -49.1211 104.932 -50.2441 104.053 -51.1719 C 103.125 -52.0508 102.002 -52.2949 100.049 -52.2949 L 30.4199 -52.2949 C 28.4668 -52.2949 27.3438 -52.0508 26.4648 -51.1719 C 25.5859 -50.2441 25.293 -49.1211 25.293 -47.168 L 25.293 -24.9023 C 25.293 -22.9492 25.5859 -21.8262 26.4648 -20.9473 C 27.3438 -20.0195 28.4668 -19.7754 30.4199 -19.7754 Z M 126.953 -25.5371 C 130.225 -25.7324 134.619 -29.9316 134.619 -36.2305 C 134.619 -42.5293 130.225 -46.7285 126.953 -46.9238 Z"/>
  </g>
  <g id="Medium-S" transform="matrix(1 0 0 1 1674.9 696)">
   <path d="M 31.1523 -4.83398 L 98.6328 -4.83398 C 105.42 -4.83398 111.133 -5.51758 115.234 -9.66797 C 119.385 -13.7695 120.02 -19.4336 120.02 -26.2207 L 120.02 -45.9473 C 120.02 -52.7832 119.385 -58.4473 115.234 -62.5488 C 111.133 -66.6504 105.42 -67.334 98.6328 -67.334 L 31.1523 -67.334 C 24.3652 -67.334 18.6523 -66.6504 14.5508 -62.5488 C 10.4004 -58.4473 9.76562 -52.7832 9.76562 -45.9961 L 9.76562 -26.2207 C 9.76562 -19.4336 10.4004 -13.7695 14.5508 -9.66797 C 18.6523 -5.51758 24.3652 -4.83398 31.1523 -4.83398 Z M 30.0781 -13.1348 C 26.416 -13.1348 22.7051 -13.623 20.6055 -15.7227 C 18.5059 -17.8223 18.0664 -21.4844 18.0664 -25.1465 L 18.0664 -47.0215 C 18.0664 -50.7324 18.5059 -54.3457 20.6055 -56.4941 C 22.7051 -58.5938 26.416 -59.0332 30.127 -59.0332 L 99.6582 -59.0332 C 103.369 -59.0332 107.08 -58.5938 109.18 -56.4941 C 111.279 -54.3945 111.67 -50.7324 111.67 -47.0215 L 111.67 -25.1465 C 111.67 -21.4844 111.279 -17.8223 109.18 -15.7227 C 107.08 -13.623 103.369 -13.1348 99.6582 -13.1348 Z M 29.5898 -19.1406 L 100.195 -19.1406 C 102.295 -19.1406 103.516 -19.4336 104.443 -20.4102 C 105.42 -21.3379 105.713 -22.5586 105.713 -24.6582 L 105.713 -47.5098 C 105.713 -49.6094 105.42 -50.8301 104.443 -51.8066 C 103.516 -52.7344 102.295 -53.0273 100.195 -53.0273 L 29.5898 -53.0273 C 27.4902 -53.0273 26.2695 -52.7344 25.3418 -51.8066 C 24.3652 -50.8301 24.0723 -49.6094 24.0723 -47.5098 L 24.0723 -24.6582 C 24.0723 -22.5586 24.3652 -21.3379 25.3418 -20.4102 C 26.2695 -19.4336 27.4902 -19.1406 29.5898 -19.1406 Z M 126.025 -25.7324 C 129.248 -25.9277 133.545 -30.0293 133.545 -36.2305 C 133.545 -42.4316 129.248 -46.5332 126.025 -46.7285 Z"/>
  </g>
  <g id="Regular-S" transform="matrix(1 0 0 1 1378.9 696)">
   <path d="M 30.6152 -5.61523 L 98.2422 -5.61523 C 104.541 -5.61523 110.352 -6.15234 114.502 -10.2539 C 118.604 -14.4043 119.092 -20.166 119.092 -26.4648 L 119.092 -45.8984 C 119.092 -52.1484 118.604 -57.959 114.502 -62.0605 C 110.352 -66.2109 104.541 -66.748 98.2422 -66.748 L 30.6152 -66.748 C 24.3652 -66.748 18.5059 -66.2109 14.3555 -62.0605 C 10.2539 -57.959 9.76562 -52.1484 9.76562 -45.8984 L 9.76562 -26.4648 C 9.76562 -20.166 10.2539 -14.4043 14.3555 -10.2539 C 18.5059 -6.15234 24.3164 -5.61523 30.6152 -5.61523 Z M 29.541 -12.6465 C 25.9766 -12.6465 21.7773 -13.0859 19.4824 -15.3809 C 17.1875 -17.6758 16.7969 -21.8262 16.7969 -25.3906 L 16.7969 -46.9238 C 16.7969 -50.5371 17.1875 -54.6875 19.4824 -56.9824 C 21.7773 -59.2773 25.9766 -59.668 29.5898 -59.668 L 99.3164 -59.668 C 102.881 -59.668 107.08 -59.2773 109.375 -56.9824 C 111.67 -54.6387 112.061 -50.5371 112.061 -46.9238 L 112.061 -25.3906 C 112.061 -21.8262 111.67 -17.6758 109.375 -15.3809 C 107.08 -13.0859 102.881 -12.6465 99.3164 -12.6465 Z M 28.5156 -18.3594 L 100.342 -18.3594 C 102.686 -18.3594 103.955 -18.6523 104.98 -19.7266 C 106.055 -20.752 106.348 -22.0703 106.348 -24.3652 L 106.348 -47.998 C 106.348 -50.293 106.055 -51.6113 104.98 -52.6367 C 103.955 -53.6621 102.686 -54.0039 100.342 -54.0039 L 28.5156 -54.0039 C 26.1719 -54.0039 24.9023 -53.6621 23.877 -52.6367 C 22.8027 -51.6113 22.5098 -50.293 22.5098 -47.998 L 22.5098 -24.3652 C 22.5098 -22.0703 22.8027 -20.752 23.877 -19.7266 C 24.9023 -18.6523 26.1719 -18.3594 28.5156 -18.3594 Z M 124.805 -25.9766 C 127.93 -26.1719 132.129 -30.1758 132.129 -36.2305 C 132.129 -42.2852 127.93 -46.2891 124.805 -46.4844 Z"/>
  </g>
  <g id="Light-S" transform="matrix(1 0 0 1 1083.55 696)">
   <path d="M 29.7852 -5.9082 L 97.7051 -5.9082 C 104.443 -5.9082 109.619 -6.5918 113.33 -10.3027 C 117.09 -14.0625 117.725 -19.1895 117.725 -25.9277 L 117.725 -45.752 C 117.725 -52.4902 117.09 -57.666 113.33 -61.377 C 109.619 -65.0879 104.443 -65.7715 97.7051 -65.7715 L 29.6387 -65.7715 C 23.0957 -65.7715 17.8711 -65.0879 14.1602 -61.377 C 10.4492 -57.666 9.76562 -52.4902 9.76562 -45.9473 L 9.76562 -25.9277 C 9.76562 -19.1895 10.4004 -14.0137 14.1113 -10.3027 C 17.8711 -6.5918 23.0469 -5.9082 29.7852 -5.9082 Z M 28.7598 -11.3281 C 24.5117 -11.3281 20.459 -11.9629 18.1152 -14.3066 C 15.7715 -16.6504 15.1855 -20.6543 15.1855 -24.9023 L 15.1855 -46.6309 C 15.1855 -51.0254 15.7715 -55.0781 18.0664 -57.4219 C 20.4102 -59.7656 24.5605 -60.3516 28.9062 -60.3516 L 98.7305 -60.3516 C 102.93 -60.3516 107.031 -59.7168 109.375 -57.4219 C 111.719 -55.0781 112.305 -51.0254 112.305 -46.7773 L 112.305 -24.9023 C 112.305 -20.6543 111.67 -16.6504 109.375 -14.3066 C 107.031 -11.9629 102.93 -11.3281 98.7305 -11.3281 Z M 28.2227 -16.1621 L 99.2676 -16.1621 C 102.539 -16.1621 104.297 -16.6016 105.713 -17.9199 C 107.08 -19.2871 107.471 -21.0938 107.471 -24.3652 L 107.471 -47.3633 C 107.471 -50.5859 107.031 -52.3926 105.713 -53.7598 C 104.346 -55.127 102.539 -55.5176 99.2676 -55.5176 L 28.2227 -55.5176 C 24.9512 -55.5176 23.1445 -55.127 21.7773 -53.7598 C 20.4102 -52.3926 20.0195 -50.5859 20.0195 -47.3633 L 20.0195 -24.3652 C 20.0195 -21.0938 20.4102 -19.2871 21.7773 -17.9199 C 23.1445 -16.6016 24.9512 -16.1621 28.2227 -16.1621 Z M 122.559 -26.6602 C 125.488 -26.8066 129.395 -30.5664 129.395 -36.2305 C 129.395 -41.8945 125.488 -45.6543 122.559 -45.8008 Z"/>
  </g>
  <g id="Thin-S" transform="matrix(1 0 0 1 788.624 696)">
   <path d="M 28.7109 -6.29883 L 96.9727 -6.29883 C 104.297 -6.29883 108.691 -7.22656 111.865 -10.4004 C 115.039 -13.5742 115.918 -17.8711 115.918 -25.2441 L 115.918 -45.6055 C 115.918 -52.9785 115.039 -57.3242 111.865 -60.4492 C 108.643 -63.623 104.297 -64.5508 96.9727 -64.5508 L 28.3691 -64.5508 C 21.4355 -64.5508 17.041 -63.5742 13.8672 -60.4004 C 10.6934 -57.2266 9.76562 -52.8809 9.76562 -45.9473 L 9.76562 -25.2441 C 9.76562 -17.8711 10.6445 -13.5254 13.8184 -10.4004 C 17.041 -7.22656 21.3867 -6.29883 28.7109 -6.29883 Z M 27.7344 -9.61914 C 22.6562 -9.61914 18.6523 -10.498 16.3086 -12.8906 C 13.916 -15.2344 13.0859 -19.1406 13.0859 -24.2676 L 13.0859 -46.2402 C 13.0859 -51.6602 13.916 -55.6641 16.2598 -58.0078 C 18.6035 -60.4004 22.7051 -61.2305 28.0762 -61.2305 L 97.9492 -61.2305 C 103.027 -61.2305 107.031 -60.3516 109.375 -57.959 C 111.719 -55.6152 112.598 -51.709 112.598 -46.6309 L 112.598 -24.2676 C 112.598 -19.1406 111.719 -15.2344 109.375 -12.8906 C 107.031 -10.4492 103.027 -9.61914 97.9492 -9.61914 Z M 27.7832 -13.2812 L 97.8516 -13.2812 C 102.393 -13.2812 104.785 -13.8184 106.592 -15.5762 C 108.398 -17.3828 108.936 -19.873 108.936 -24.3164 L 108.936 -46.5332 C 108.936 -50.9766 108.398 -53.418 106.592 -55.2734 C 104.834 -57.0801 102.393 -57.5684 97.8516 -57.5684 L 27.7832 -57.5684 C 23.291 -57.5684 20.8496 -57.0801 19.043 -55.2734 C 17.2852 -53.418 16.748 -50.9766 16.748 -46.5332 L 16.748 -24.3164 C 16.748 -19.873 17.2363 -17.3828 19.043 -15.5762 C 20.8984 -13.8184 23.291 -13.2812 27.7832 -13.2812 Z M 119.58 -27.4902 C 122.217 -27.6367 125.83 -31.0547 125.83 -36.2305 C 125.83 -41.4062 122.217 -44.8242 119.58 -44.9707 Z"/>
  </g>
  <g id="Ultralight-S" transform="matrix(1 0 0 1 492.841 696)">
   <path d="M 28.1738 -6.49414 L 96.582 -6.49414 C 104.199 -6.49414 108.154 -7.56836 111.084 -10.4492 C 113.965 -13.3301 114.941 -17.1875 114.941 -24.9023 L 114.941 -45.5078 C 114.941 -53.2227 113.965 -57.1289 111.084 -59.9609 C 108.105 -62.8906 104.199 -63.916 96.582 -63.916 L 27.6855 -63.916 C 20.6055 -63.916 16.6016 -62.8418 13.7207 -59.9121 C 10.791 -57.0312 9.76562 -53.125 9.76562 -45.9961 L 9.76562 -24.9023 C 9.76562 -17.1875 10.7422 -13.2812 13.6719 -10.4492 C 16.6016 -7.56836 20.5078 -6.49414 28.1738 -6.49414 Z M 27.1973 -8.69141 C 21.6797 -8.69141 17.7246 -9.76562 15.332 -12.1094 C 12.9395 -14.502 11.9629 -18.3594 11.9629 -23.9258 L 11.9629 -46.0449 C 11.9629 -51.9531 12.9395 -55.957 15.2832 -58.3496 C 17.6758 -60.7422 21.7285 -61.7188 27.6367 -61.7188 L 97.5586 -61.7188 C 103.076 -61.7188 106.982 -60.6934 109.375 -58.3008 C 111.768 -55.9082 112.744 -52.0508 112.744 -46.4844 L 112.744 -23.9258 C 112.744 -18.3594 111.719 -14.502 109.375 -12.1094 C 106.982 -9.7168 103.076 -8.69141 97.5586 -8.69141 Z M 27.5879 -11.7676 L 97.1191 -11.7676 C 102.295 -11.7676 105.029 -12.4023 107.08 -14.4043 C 109.131 -16.4062 109.668 -19.2383 109.668 -24.3164 L 109.668 -46.0938 C 109.668 -51.1719 109.082 -53.9551 107.08 -56.0059 C 105.078 -58.0566 102.295 -58.6426 97.1191 -58.6426 L 27.5879 -58.6426 C 22.4121 -58.6426 19.6777 -58.0566 17.6758 -56.0059 C 15.6738 -53.9551 15.0391 -51.1719 15.0391 -46.0938 L 15.0391 -24.3164 C 15.0391 -19.2383 15.625 -16.4062 17.6758 -14.4043 C 19.7266 -12.4023 22.4121 -11.7676 27.5879 -11.7676 Z M 118.018 -27.9297 C 120.557 -28.0762 123.975 -31.3477 123.975 -36.2305 C 123.975 -41.1133 120.557 -44.3848 118.018 -44.5312 Z"/>
  </g>
 </g>
</svg>
